<svg width="580" height="289" viewBox="0 0 580 289" fill="none" xmlns="http://www.w3.org/2000/svg">
<path d="M1.84836 199.699H579" stroke="#F7F7F7" stroke-width="1.84836" stroke-linecap="round" stroke-dasharray="3.7 3.7"/>
<path d="M1.84836 135.006H579" stroke="#F7F7F7" stroke-width="1.84836" stroke-linecap="round" stroke-dasharray="3.7 3.7"/>
<path d="M1.84836 70.3136H579" stroke="#F7F7F7" stroke-width="1.84836" stroke-linecap="round" stroke-dasharray="3.7 3.7"/>
<path d="M1.84836 5.62091H579" stroke="#F7F7F7" stroke-width="1.84836" stroke-linecap="round" stroke-dasharray="3.7 3.7"/>
<path d="M101.66 2.84837V265.316" stroke="#F6F6F6" stroke-width="1.84836" stroke-linecap="round"/>
<path d="M189.457 2.84837V265.316" stroke="#F6F6F6" stroke-width="1.84836" stroke-linecap="round"/>
<path d="M13.8627 3.77254V266.24" stroke="#F6F6F6" stroke-width="1.84836" stroke-linecap="round" stroke-dasharray="3.7 3.7"/>
<path d="M277.255 1V263.468" stroke="#F6F6F6" stroke-width="1.84836" stroke-linecap="round"/>
<path d="M365.052 1V263.468" stroke="#F6F6F6" stroke-width="1.84836" stroke-linecap="round"/>
<path d="M452.849 1V263.468" stroke="#F6F6F6" stroke-width="1.84836" stroke-linecap="round"/>
<path d="M88.451 286.482V285.253L91.322 282.595C91.5662 282.359 91.771 282.146 91.9364 281.957C92.1044 281.768 92.2318 281.583 92.3184 281.402C92.4051 281.218 92.4484 281.02 92.4484 280.807C92.4484 280.571 92.3946 280.367 92.2869 280.197C92.1793 280.023 92.0322 279.891 91.8458 279.799C91.6594 279.704 91.4481 279.657 91.2118 279.657C90.965 279.657 90.7497 279.707 90.5659 279.807C90.3821 279.906 90.2403 280.05 90.1406 280.236C90.0408 280.422 89.9909 280.644 89.9909 280.902H88.3723C88.3723 280.374 88.4917 279.916 88.7307 279.527C88.9696 279.138 89.3043 278.838 89.7349 278.625C90.1655 278.413 90.6617 278.306 91.2236 278.306C91.8012 278.306 92.304 278.409 92.7319 278.613C93.1625 278.816 93.4973 279.096 93.7362 279.456C93.9751 279.816 94.0946 280.228 94.0946 280.693C94.0946 280.997 94.0342 281.298 93.9134 281.595C93.7953 281.891 93.5839 282.221 93.2794 282.583C92.9748 282.943 92.5455 283.375 91.9916 283.879L90.814 285.033V285.088H94.2009V286.482H88.451ZM98.599 286.659C97.9216 286.657 97.3387 286.49 96.8504 286.159C96.3647 285.828 95.9905 285.349 95.728 284.722C95.4681 284.094 95.3394 283.339 95.342 282.457C95.342 281.578 95.472 280.828 95.7319 280.208C95.9945 279.589 96.3686 279.117 96.8543 278.795C97.3427 278.469 97.9242 278.306 98.599 278.306C99.2738 278.306 99.854 278.469 100.34 278.795C100.828 279.12 101.204 279.593 101.466 280.212C101.729 280.829 101.859 281.578 101.856 282.457C101.856 283.342 101.725 284.098 101.462 284.726C101.202 285.353 100.829 285.832 100.344 286.163C99.8579 286.494 99.2764 286.659 98.599 286.659ZM98.599 285.245C99.0611 285.245 99.43 285.013 99.7056 284.548C99.9813 284.084 100.118 283.387 100.115 282.457C100.115 281.845 100.052 281.336 99.9262 280.929C99.8028 280.522 99.6269 280.216 99.3985 280.011C99.1727 279.807 98.9062 279.704 98.599 279.704C98.1395 279.704 97.772 279.934 97.4963 280.393C97.2206 280.853 97.0814 281.541 97.0788 282.457C97.0788 283.077 97.1405 283.594 97.2639 284.009C97.3899 284.421 97.5672 284.731 97.7956 284.938C98.024 285.143 98.2918 285.245 98.599 285.245ZM106.581 278.416V286.482H104.876V280.035H104.828L102.981 281.193V279.681L104.978 278.416H106.581ZM111.593 286.592C111.179 286.59 110.778 286.52 110.392 286.384C110.009 286.247 109.665 286.025 109.36 285.718C109.056 285.411 108.814 285.004 108.636 284.497C108.46 283.99 108.372 283.368 108.372 282.63C108.374 281.953 108.452 281.348 108.604 280.815C108.759 280.279 108.98 279.825 109.266 279.452C109.555 279.079 109.9 278.796 110.302 278.602C110.703 278.405 111.154 278.306 111.652 278.306C112.191 278.306 112.666 278.411 113.078 278.621C113.49 278.829 113.821 279.111 114.071 279.468C114.323 279.825 114.475 280.225 114.527 280.669H112.846C112.78 280.388 112.642 280.168 112.432 280.008C112.222 279.847 111.962 279.767 111.652 279.767C111.127 279.767 110.728 279.996 110.455 280.453C110.185 280.909 110.047 281.53 110.042 282.315H110.097C110.218 282.076 110.38 281.873 110.585 281.705C110.793 281.534 111.028 281.404 111.29 281.315C111.555 281.223 111.835 281.177 112.129 281.177C112.607 281.177 113.032 281.29 113.405 281.516C113.778 281.739 114.072 282.046 114.287 282.437C114.502 282.829 114.61 283.276 114.61 283.78C114.61 284.327 114.483 284.812 114.228 285.238C113.976 285.663 113.623 285.996 113.169 286.238C112.717 286.477 112.192 286.595 111.593 286.592ZM111.585 285.253C111.848 285.253 112.083 285.19 112.29 285.064C112.498 284.938 112.661 284.768 112.779 284.552C112.897 284.337 112.956 284.095 112.956 283.828C112.956 283.56 112.897 283.32 112.779 283.107C112.663 282.894 112.503 282.725 112.298 282.599C112.093 282.473 111.86 282.41 111.597 282.41C111.4 282.41 111.218 282.447 111.05 282.52C110.884 282.594 110.739 282.696 110.613 282.827C110.489 282.959 110.392 283.111 110.321 283.284C110.25 283.455 110.215 283.637 110.215 283.832C110.215 284.092 110.274 284.329 110.392 284.544C110.513 284.76 110.676 284.932 110.881 285.06C111.088 285.189 111.323 285.253 111.585 285.253Z" fill="#646464"/>
<path d="M0.653754 286.482V285.253L3.52476 282.595C3.76893 282.359 3.97372 282.146 4.13913 281.957C4.30716 281.768 4.4345 281.583 4.52114 281.402C4.60778 281.218 4.6511 281.02 4.6511 280.807C4.6511 280.571 4.59728 280.367 4.48963 280.197C4.38199 280.023 4.23496 279.891 4.04855 279.799C3.86214 279.704 3.65078 279.657 3.41449 279.657C3.16769 279.657 2.95239 279.707 2.76861 279.807C2.58482 279.906 2.44304 280.05 2.34327 280.236C2.2435 280.422 2.19362 280.644 2.19362 280.902H0.574988C0.574988 280.374 0.694449 279.916 0.933371 279.527C1.17229 279.138 1.50705 278.838 1.93763 278.625C2.36822 278.413 2.86444 278.306 3.4263 278.306C4.00391 278.306 4.5067 278.409 4.93466 278.613C5.36524 278.816 5.7 279.096 5.93892 279.456C6.17784 279.816 6.2973 280.228 6.2973 280.693C6.2973 280.997 6.23692 281.298 6.11614 281.595C5.99799 281.891 5.78664 282.221 5.48208 282.583C5.17752 282.943 4.74825 283.375 4.19426 283.879L3.01672 285.033V285.088H6.40364V286.482H0.653754ZM10.8017 286.659C10.1243 286.657 9.54146 286.49 9.05311 286.159C8.56739 285.828 8.19325 285.349 7.9307 284.722C7.67078 284.094 7.54213 283.339 7.54475 282.457C7.54475 281.578 7.67471 280.828 7.93464 280.208C8.19719 279.589 8.57133 279.117 9.05705 278.795C9.5454 278.469 10.1269 278.306 10.8017 278.306C11.4765 278.306 12.0567 278.469 12.5424 278.795C13.0308 279.12 13.4062 279.593 13.6688 280.212C13.9313 280.829 14.0613 281.578 14.0587 282.457C14.0587 283.342 13.9274 284.098 13.6648 284.726C13.4049 285.353 13.0321 285.832 12.5464 286.163C12.0606 286.494 11.4791 286.659 10.8017 286.659ZM10.8017 285.245C11.2638 285.245 11.6327 285.013 11.9084 284.548C12.184 284.084 12.3206 283.387 12.3179 282.457C12.3179 281.845 12.2549 281.336 12.1289 280.929C12.0055 280.522 11.8296 280.216 11.6012 280.011C11.3754 279.807 11.1089 279.704 10.8017 279.704C10.3422 279.704 9.97467 279.934 9.69899 280.393C9.42331 280.853 9.28416 281.541 9.28153 282.457C9.28153 283.077 9.34323 283.594 9.46663 284.009C9.59266 284.421 9.76988 284.731 9.9983 284.938C10.2267 285.143 10.4945 285.245 10.8017 285.245ZM18.7836 278.416V286.482H17.0783V280.035H17.0311L15.184 281.193V279.681L17.1807 278.416H18.7836ZM23.6464 286.592C23.0898 286.592 22.5936 286.49 22.1577 286.285C21.7245 286.08 21.3806 285.798 21.1259 285.438C20.8712 285.079 20.7386 284.667 20.7281 284.202H22.3822C22.4006 284.514 22.5319 284.768 22.776 284.962C23.0202 285.156 23.3103 285.253 23.6464 285.253C23.9142 285.253 24.1505 285.194 24.3553 285.076C24.5627 284.955 24.7242 284.789 24.8397 284.576C24.9578 284.361 25.0169 284.114 25.0169 283.836C25.0169 283.552 24.9565 283.303 24.8358 283.087C24.7176 282.872 24.5535 282.704 24.3435 282.583C24.1334 282.462 23.8932 282.401 23.6228 282.398C23.3865 282.398 23.1567 282.447 22.9336 282.544C22.713 282.641 22.541 282.774 22.4177 282.942L20.9014 282.67L21.2834 278.416H26.2141V279.811H22.6894L22.4807 281.831H22.5279C22.6697 281.631 22.8837 281.466 23.1699 281.335C23.456 281.203 23.7764 281.138 24.1308 281.138C24.6165 281.138 25.0497 281.252 25.4304 281.48C25.8111 281.709 26.1118 282.023 26.3323 282.422C26.5528 282.818 26.6618 283.275 26.6592 283.792C26.6618 284.336 26.5358 284.819 26.2811 285.241C26.029 285.662 25.6759 285.992 25.2217 286.234C24.7701 286.473 24.245 286.592 23.6464 286.592Z" fill="#646464"/>
<path d="M176.248 286.482V285.253L179.119 282.595C179.364 282.359 179.568 282.146 179.734 281.957C179.902 281.768 180.029 281.583 180.116 281.402C180.202 281.218 180.246 281.02 180.246 280.807C180.246 280.571 180.192 280.367 180.084 280.197C179.977 280.023 179.83 279.891 179.643 279.799C179.457 279.704 179.245 279.657 179.009 279.657C178.762 279.657 178.547 279.707 178.363 279.807C178.179 279.906 178.038 280.05 177.938 280.236C177.838 280.422 177.788 280.644 177.788 280.902H176.17C176.17 280.374 176.289 279.916 176.528 279.527C176.767 279.138 177.102 278.838 177.532 278.625C177.963 278.413 178.459 278.306 179.021 278.306C179.598 278.306 180.101 278.409 180.529 278.613C180.96 278.816 181.295 279.096 181.533 279.456C181.772 279.816 181.892 280.228 181.892 280.693C181.892 280.997 181.831 281.298 181.711 281.595C181.593 281.891 181.381 282.221 181.077 282.583C180.772 282.943 180.343 283.375 179.789 283.879L178.611 285.033V285.088H181.998V286.482H176.248ZM186.396 286.659C185.719 286.657 185.136 286.49 184.648 286.159C184.162 285.828 183.788 285.349 183.525 284.722C183.265 284.094 183.137 283.339 183.139 282.457C183.139 281.578 183.269 280.828 183.529 280.208C183.792 279.589 184.166 279.117 184.652 278.795C185.14 278.469 185.722 278.306 186.396 278.306C187.071 278.306 187.651 278.469 188.137 278.795C188.625 279.12 189.001 279.593 189.263 280.212C189.526 280.829 189.656 281.578 189.653 282.457C189.653 283.342 189.522 284.098 189.259 284.726C188.999 285.353 188.627 285.832 188.141 286.163C187.655 286.494 187.074 286.659 186.396 286.659ZM186.396 285.245C186.858 285.245 187.227 285.013 187.503 284.548C187.779 284.084 187.915 283.387 187.913 282.457C187.913 281.845 187.85 281.336 187.723 280.929C187.6 280.522 187.424 280.216 187.196 280.011C186.97 279.807 186.703 279.704 186.396 279.704C185.937 279.704 185.569 279.934 185.294 280.393C185.018 280.853 184.879 281.541 184.876 282.457C184.876 283.077 184.938 283.594 185.061 284.009C185.187 284.421 185.364 284.731 185.593 284.938C185.821 285.143 186.089 285.245 186.396 285.245ZM194.378 278.416V286.482H192.673V280.035H192.626L190.779 281.193V279.681L192.775 278.416H194.378ZM196.614 286.482L199.958 279.866V279.811H196.063V278.416H201.722V279.83L198.375 286.482H196.614Z" fill="#646464"/>
<path d="M264.046 286.482V285.253L266.917 282.595C267.161 282.359 267.366 282.146 267.531 281.957C267.699 281.768 267.826 281.583 267.913 281.402C268 281.218 268.043 281.02 268.043 280.807C268.043 280.571 267.989 280.367 267.881 280.197C267.774 280.023 267.627 279.891 267.44 279.799C267.254 279.704 267.043 279.657 266.806 279.657C266.56 279.657 266.344 279.707 266.16 279.807C265.977 279.906 265.835 280.05 265.735 280.236C265.635 280.422 265.585 280.644 265.585 280.902H263.967C263.967 280.374 264.086 279.916 264.325 279.527C264.564 279.138 264.899 278.838 265.329 278.625C265.76 278.413 266.256 278.306 266.818 278.306C267.396 278.306 267.899 278.409 268.327 278.613C268.757 278.816 269.092 279.096 269.331 279.456C269.57 279.816 269.689 280.228 269.689 280.693C269.689 280.997 269.629 281.298 269.508 281.595C269.39 281.891 269.178 282.221 268.874 282.583C268.569 282.943 268.14 283.375 267.586 283.879L266.409 285.033V285.088H269.795V286.482H264.046ZM274.194 286.659C273.516 286.657 272.933 286.49 272.445 286.159C271.959 285.828 271.585 285.349 271.323 284.722C271.063 284.094 270.934 283.339 270.937 282.457C270.937 281.578 271.067 280.828 271.326 280.208C271.589 279.589 271.963 279.117 272.449 278.795C272.937 278.469 273.519 278.306 274.194 278.306C274.868 278.306 275.449 278.469 275.934 278.795C276.423 279.12 276.798 279.593 277.061 280.212C277.323 280.829 277.453 281.578 277.451 282.457C277.451 283.342 277.319 284.098 277.057 284.726C276.797 285.353 276.424 285.832 275.938 286.163C275.452 286.494 274.871 286.659 274.194 286.659ZM274.194 285.245C274.656 285.245 275.025 285.013 275.3 284.548C275.576 284.084 275.712 283.387 275.71 282.457C275.71 281.845 275.647 281.336 275.521 280.929C275.397 280.522 275.221 280.216 274.993 280.011C274.767 279.807 274.501 279.704 274.194 279.704C273.734 279.704 273.367 279.934 273.091 280.393C272.815 280.853 272.676 281.541 272.673 282.457C272.673 283.077 272.735 283.594 272.858 284.009C272.985 284.421 273.162 284.731 273.39 284.938C273.619 285.143 273.886 285.245 274.194 285.245ZM282.175 278.416V286.482H280.47V280.035H280.423L278.576 281.193V279.681L280.573 278.416H282.175ZM287.101 286.592C286.495 286.592 285.955 286.494 285.483 286.297C285.013 286.097 284.644 285.826 284.376 285.482C284.108 285.138 283.974 284.748 283.974 284.312C283.974 283.976 284.05 283.668 284.203 283.387C284.358 283.103 284.568 282.868 284.833 282.682C285.098 282.493 285.395 282.372 285.723 282.319V282.264C285.292 282.178 284.943 281.969 284.675 281.638C284.407 281.305 284.274 280.917 284.274 280.476C284.274 280.059 284.396 279.687 284.64 279.362C284.884 279.033 285.219 278.776 285.644 278.59C286.072 278.401 286.558 278.306 287.101 278.306C287.645 278.306 288.129 278.401 288.554 278.59C288.982 278.779 289.318 279.037 289.563 279.366C289.807 279.691 289.93 280.061 289.933 280.476C289.93 280.92 289.794 281.307 289.523 281.638C289.253 281.969 288.906 282.178 288.484 282.264V282.319C288.807 282.372 289.099 282.493 289.362 282.682C289.627 282.868 289.837 283.103 289.992 283.387C290.149 283.668 290.23 283.976 290.232 284.312C290.23 284.748 290.094 285.138 289.827 285.482C289.559 285.826 289.189 286.097 288.716 286.297C288.246 286.494 287.708 286.592 287.101 286.592ZM287.101 285.34C287.372 285.34 287.608 285.291 287.81 285.194C288.012 285.094 288.17 284.958 288.283 284.785C288.398 284.609 288.456 284.407 288.456 284.178C288.456 283.944 288.397 283.738 288.279 283.56C288.161 283.379 288 283.237 287.798 283.135C287.596 283.03 287.364 282.977 287.101 282.977C286.841 282.977 286.609 283.03 286.404 283.135C286.199 283.237 286.038 283.379 285.92 283.56C285.804 283.738 285.746 283.944 285.746 284.178C285.746 284.407 285.803 284.609 285.916 284.785C286.029 284.958 286.188 285.094 286.392 285.194C286.597 285.291 286.833 285.34 287.101 285.34ZM287.101 281.736C287.327 281.736 287.528 281.69 287.704 281.599C287.88 281.507 288.018 281.379 288.117 281.217C288.217 281.054 288.267 280.866 288.267 280.653C288.267 280.443 288.217 280.26 288.117 280.102C288.018 279.942 287.881 279.817 287.708 279.728C287.534 279.636 287.332 279.59 287.101 279.59C286.873 279.59 286.671 279.636 286.495 279.728C286.319 279.817 286.181 279.942 286.081 280.102C285.984 280.26 285.936 280.443 285.936 280.653C285.936 280.866 285.985 281.054 286.085 281.217C286.185 281.379 286.323 281.507 286.499 281.599C286.675 281.69 286.875 281.736 287.101 281.736Z" fill="#646464"/>
<path d="M351.843 286.482V285.253L354.714 282.595C354.958 282.359 355.163 282.146 355.328 281.957C355.496 281.768 355.624 281.583 355.71 281.402C355.797 281.218 355.84 281.02 355.84 280.807C355.84 280.571 355.786 280.367 355.679 280.197C355.571 280.023 355.424 279.891 355.238 279.799C355.051 279.704 354.84 279.657 354.604 279.657C354.357 279.657 354.142 279.707 353.958 279.807C353.774 279.906 353.632 280.05 353.532 280.236C353.433 280.422 353.383 280.644 353.383 280.902H351.764C351.764 280.374 351.884 279.916 352.123 279.527C352.361 279.138 352.696 278.838 353.127 278.625C353.557 278.413 354.054 278.306 354.615 278.306C355.193 278.306 355.696 278.409 356.124 278.613C356.554 278.816 356.889 279.096 357.128 279.456C357.367 279.816 357.486 280.228 357.486 280.693C357.486 280.997 357.426 281.298 357.305 281.595C357.187 281.891 356.976 282.221 356.671 282.583C356.367 282.943 355.937 283.375 355.383 283.879L354.206 285.033V285.088H357.593V286.482H351.843ZM361.991 286.659C361.313 286.657 360.731 286.49 360.242 286.159C359.757 285.828 359.382 285.349 359.12 284.722C358.86 284.094 358.731 283.339 358.734 282.457C358.734 281.578 358.864 280.828 359.124 280.208C359.386 279.589 359.76 279.117 360.246 278.795C360.735 278.469 361.316 278.306 361.991 278.306C362.666 278.306 363.246 278.469 363.732 278.795C364.22 279.12 364.595 279.593 364.858 280.212C365.12 280.829 365.25 281.578 365.248 282.457C365.248 283.342 365.117 284.098 364.854 284.726C364.594 285.353 364.221 285.832 363.736 286.163C363.25 286.494 362.668 286.659 361.991 286.659ZM361.991 285.245C362.453 285.245 362.822 285.013 363.098 284.548C363.373 284.084 363.51 283.387 363.507 282.457C363.507 281.845 363.444 281.336 363.318 280.929C363.195 280.522 363.019 280.216 362.79 280.011C362.565 279.807 362.298 279.704 361.991 279.704C361.531 279.704 361.164 279.934 360.888 280.393C360.612 280.853 360.473 281.541 360.471 282.457C360.471 283.077 360.532 283.594 360.656 284.009C360.782 284.421 360.959 284.731 361.187 284.938C361.416 285.143 361.684 285.245 361.991 285.245ZM369.973 278.416V286.482H368.267V280.035H368.22L366.373 281.193V279.681L368.37 278.416H369.973ZM374.808 278.306C375.223 278.306 375.622 278.376 376.005 278.515C376.391 278.654 376.735 278.876 377.037 279.18C377.342 279.485 377.582 279.889 377.758 280.393C377.936 280.895 378.027 281.511 378.029 282.241C378.029 282.926 377.952 283.538 377.797 284.076C377.645 284.611 377.426 285.067 377.139 285.442C376.853 285.818 376.508 286.104 376.104 286.301C375.699 286.495 375.248 286.592 374.749 286.592C374.211 286.592 373.735 286.489 373.323 286.281C372.911 286.071 372.579 285.786 372.327 285.427C372.077 285.064 371.926 284.657 371.874 284.206H373.556C373.621 284.5 373.759 284.728 373.969 284.891C374.179 285.051 374.439 285.131 374.749 285.131C375.274 285.131 375.673 284.903 375.946 284.446C376.219 283.987 376.357 283.358 376.36 282.56H376.305C376.184 282.796 376.021 282.999 375.816 283.17C375.611 283.338 375.376 283.468 375.111 283.56C374.849 283.652 374.569 283.698 374.272 283.698C373.797 283.698 373.373 283.586 373 283.363C372.627 283.14 372.333 282.833 372.118 282.441C371.903 282.05 371.795 281.604 371.795 281.102C371.793 280.562 371.917 280.08 372.169 279.657C372.421 279.234 372.773 278.904 373.225 278.665C373.679 278.423 374.207 278.304 374.808 278.306ZM374.82 279.645C374.555 279.645 374.318 279.708 374.111 279.834C373.906 279.96 373.743 280.13 373.623 280.342C373.504 280.555 373.447 280.793 373.449 281.055C373.449 281.32 373.507 281.559 373.623 281.772C373.741 281.982 373.901 282.15 374.103 282.276C374.308 282.399 374.541 282.461 374.804 282.461C375.001 282.461 375.183 282.424 375.351 282.351C375.519 282.277 375.665 282.176 375.789 282.048C375.915 281.916 376.013 281.765 376.084 281.595C376.155 281.424 376.19 281.243 376.19 281.051C376.188 280.796 376.127 280.563 376.009 280.35C375.891 280.137 375.728 279.967 375.521 279.838C375.313 279.71 375.08 279.645 374.82 279.645Z" fill="#646464"/>
<path d="M439.64 286.482V285.253L442.511 282.595C442.755 282.359 442.96 282.146 443.126 281.957C443.294 281.768 443.421 281.583 443.508 281.402C443.594 281.218 443.638 281.02 443.638 280.807C443.638 280.571 443.584 280.367 443.476 280.197C443.368 280.023 443.221 279.891 443.035 279.799C442.849 279.704 442.637 279.657 442.401 279.657C442.154 279.657 441.939 279.707 441.755 279.807C441.571 279.906 441.429 280.05 441.33 280.236C441.23 280.422 441.18 280.644 441.18 280.902H439.561C439.561 280.374 439.681 279.916 439.92 279.527C440.159 279.138 440.493 278.838 440.924 278.625C441.355 278.413 441.851 278.306 442.413 278.306C442.99 278.306 443.493 278.409 443.921 278.613C444.352 278.816 444.686 279.096 444.925 279.456C445.164 279.816 445.284 280.228 445.284 280.693C445.284 280.997 445.223 281.298 445.103 281.595C444.984 281.891 444.773 282.221 444.468 282.583C444.164 282.943 443.735 283.375 443.181 283.879L442.003 285.033V285.088H445.39V286.482H439.64ZM449.788 286.659C449.111 286.657 448.528 286.49 448.04 286.159C447.554 285.828 447.18 285.349 446.917 284.722C446.657 284.094 446.529 283.339 446.531 282.457C446.531 281.578 446.661 280.828 446.921 280.208C447.184 279.589 447.558 279.117 448.043 278.795C448.532 278.469 449.113 278.306 449.788 278.306C450.463 278.306 451.043 278.469 451.529 278.795C452.017 279.12 452.393 279.593 452.655 280.212C452.918 280.829 453.048 281.578 453.045 282.457C453.045 283.342 452.914 284.098 452.651 284.726C452.391 285.353 452.019 285.832 451.533 286.163C451.047 286.494 450.466 286.659 449.788 286.659ZM449.788 285.245C450.25 285.245 450.619 285.013 450.895 284.548C451.17 284.084 451.307 283.387 451.304 282.457C451.304 281.845 451.241 281.336 451.115 280.929C450.992 280.522 450.816 280.216 450.588 280.011C450.362 279.807 450.095 279.704 449.788 279.704C449.329 279.704 448.961 279.934 448.685 280.393C448.41 280.853 448.271 281.541 448.268 282.457C448.268 283.077 448.33 283.594 448.453 284.009C448.579 284.421 448.756 284.731 448.985 284.938C449.213 285.143 449.481 285.245 449.788 285.245ZM454.261 286.482V285.253L457.132 282.595C457.376 282.359 457.581 282.146 457.746 281.957C457.914 281.768 458.042 281.583 458.128 281.402C458.215 281.218 458.258 281.02 458.258 280.807C458.258 280.571 458.205 280.367 458.097 280.197C457.989 280.023 457.842 279.891 457.656 279.799C457.469 279.704 457.258 279.657 457.022 279.657C456.775 279.657 456.56 279.707 456.376 279.807C456.192 279.906 456.05 280.05 455.951 280.236C455.851 280.422 455.801 280.644 455.801 280.902H454.182C454.182 280.374 454.302 279.916 454.541 279.527C454.78 279.138 455.114 278.838 455.545 278.625C455.975 278.413 456.472 278.306 457.034 278.306C457.611 278.306 458.114 278.409 458.542 278.613C458.973 278.816 459.307 279.096 459.546 279.456C459.785 279.816 459.905 280.228 459.905 280.693C459.905 280.997 459.844 281.298 459.723 281.595C459.605 281.891 459.394 282.221 459.089 282.583C458.785 282.943 458.356 283.375 457.802 283.879L456.624 285.033V285.088H460.011V286.482H454.261ZM464.409 286.659C463.732 286.657 463.149 286.49 462.66 286.159C462.175 285.828 461.801 285.349 461.538 284.722C461.278 284.094 461.149 283.339 461.152 282.457C461.152 281.578 461.282 280.828 461.542 280.208C461.804 279.589 462.179 279.117 462.664 278.795C463.153 278.469 463.734 278.306 464.409 278.306C465.084 278.306 465.664 278.469 466.15 278.795C466.638 279.12 467.013 279.593 467.276 280.212C467.539 280.829 467.669 281.578 467.666 282.457C467.666 283.342 467.535 284.098 467.272 284.726C467.012 285.353 466.639 285.832 466.154 286.163C465.668 286.494 465.086 286.659 464.409 286.659ZM464.409 285.245C464.871 285.245 465.24 285.013 465.516 284.548C465.791 284.084 465.928 283.387 465.925 282.457C465.925 281.845 465.862 281.336 465.736 280.929C465.613 280.522 465.437 280.216 465.208 280.011C464.983 279.807 464.716 279.704 464.409 279.704C463.95 279.704 463.582 279.934 463.306 280.393C463.031 280.853 462.891 281.541 462.889 282.457C462.889 283.077 462.95 283.594 463.074 284.009C463.2 284.421 463.377 284.731 463.606 284.938C463.834 285.143 464.102 285.245 464.409 285.245Z" fill="#646464"/>
<path d="M540.646 1V263.468" stroke="#F6F6F6" stroke-width="1.84836" stroke-linecap="round" stroke-dasharray="3.7 3.7"/>
<path d="M3.69673 264.392H548.502" stroke="#F6F6F6" stroke-width="1.84836" stroke-linecap="round"/>
<path d="M527.437 286.482V285.253L530.308 282.595C530.553 282.359 530.757 282.146 530.923 281.957C531.091 281.768 531.218 281.583 531.305 281.402C531.391 281.218 531.435 281.02 531.435 280.807C531.435 280.571 531.381 280.367 531.273 280.197C531.166 280.023 531.019 279.891 530.832 279.799C530.646 279.704 530.434 279.657 530.198 279.657C529.951 279.657 529.736 279.707 529.552 279.807C529.369 279.906 529.227 280.05 529.127 280.236C529.027 280.422 528.977 280.644 528.977 280.902H527.359C527.359 280.374 527.478 279.916 527.717 279.527C527.956 279.138 528.291 278.838 528.721 278.625C529.152 278.413 529.648 278.306 530.21 278.306C530.788 278.306 531.29 278.409 531.718 278.613C532.149 278.816 532.484 279.096 532.723 279.456C532.962 279.816 533.081 280.228 533.081 280.693C533.081 280.997 533.021 281.298 532.9 281.595C532.782 281.891 532.57 282.221 532.266 282.583C531.961 282.943 531.532 283.375 530.978 283.879L529.8 285.033V285.088H533.187V286.482H527.437ZM537.585 286.659C536.908 286.657 536.325 286.49 535.837 286.159C535.351 285.828 534.977 285.349 534.714 284.722C534.454 284.094 534.326 283.339 534.328 282.457C534.328 281.578 534.458 280.828 534.718 280.208C534.981 279.589 535.355 279.117 535.841 278.795C536.329 278.469 536.911 278.306 537.585 278.306C538.26 278.306 538.84 278.469 539.326 278.795C539.814 279.12 540.19 279.593 540.452 280.212C540.715 280.829 540.845 281.578 540.842 282.457C540.842 283.342 540.711 284.098 540.449 284.726C540.189 285.353 539.816 285.832 539.33 286.163C538.844 286.494 538.263 286.659 537.585 286.659ZM537.585 285.245C538.047 285.245 538.416 285.013 538.692 284.548C538.968 284.084 539.104 283.387 539.102 282.457C539.102 281.845 539.039 281.336 538.913 280.929C538.789 280.522 538.613 280.216 538.385 280.011C538.159 279.807 537.893 279.704 537.585 279.704C537.126 279.704 536.758 279.934 536.483 280.393C536.207 280.853 536.068 281.541 536.065 282.457C536.065 283.077 536.127 283.594 536.25 284.009C536.376 284.421 536.554 284.731 536.782 284.938C537.01 285.143 537.278 285.245 537.585 285.245ZM542.058 286.482V285.253L544.929 282.595C545.173 282.359 545.378 282.146 545.544 281.957C545.712 281.768 545.839 281.583 545.926 281.402C546.012 281.218 546.056 281.02 546.056 280.807C546.056 280.571 546.002 280.367 545.894 280.197C545.787 280.023 545.639 279.891 545.453 279.799C545.267 279.704 545.055 279.657 544.819 279.657C544.572 279.657 544.357 279.707 544.173 279.807C543.989 279.906 543.848 280.05 543.748 280.236C543.648 280.422 543.598 280.644 543.598 280.902H541.98C541.98 280.374 542.099 279.916 542.338 279.527C542.577 279.138 542.912 278.838 543.342 278.625C543.773 278.413 544.269 278.306 544.831 278.306C545.408 278.306 545.911 278.409 546.339 278.613C546.77 278.816 547.105 279.096 547.343 279.456C547.582 279.816 547.702 280.228 547.702 280.693C547.702 280.997 547.641 281.298 547.521 281.595C547.403 281.891 547.191 282.221 546.887 282.583C546.582 282.943 546.153 283.375 545.599 283.879L544.421 285.033V285.088H547.808V286.482H542.058ZM552.553 278.416V286.482H550.848V280.035H550.8L548.953 281.193V279.681L550.95 278.416H552.553Z" fill="#646464"/>
<path d="M38.4333 149.504L14.3248 159.035V264.392H540.646V117.447H489.841C480.544 117.447 471.514 120.562 464.195 126.296L438.145 146.702C427.31 155.189 412.285 155.871 400.727 148.4L400.18 148.047C389.313 141.023 375.247 141.404 364.776 149.006C354.817 156.237 341.546 156.964 330.856 150.866L304.874 136.046C291.323 128.316 274.585 128.82 261.524 137.352L241.015 150.749C231.14 157.2 218.99 159.153 207.59 156.124L170.377 146.235C163.204 144.329 155.652 144.377 148.504 146.374L110.39 157.024C101.44 159.525 91.9103 158.956 83.3215 155.408L69.6002 149.741C59.6348 145.625 48.4602 145.54 38.4333 149.504Z" fill="url(#paint0_linear_1_182)"/>
<path d="M13.8627 159.035L38.4977 149.408C48.4874 145.504 59.5992 145.61 69.5123 149.705L83.3215 155.408C91.9103 158.956 101.44 159.525 110.39 157.024L148.504 146.374C155.652 144.377 163.204 144.329 170.377 146.235L207.59 156.124C218.99 159.153 231.14 157.2 241.015 150.749L261.524 137.352C274.585 128.82 291.323 128.316 304.874 136.046L330.856 150.866C341.546 156.964 354.817 156.237 364.776 149.006V149.006C375.247 141.404 389.313 141.023 400.18 148.047L400.727 148.4C412.285 155.871 427.31 155.189 438.145 146.702L464.195 126.296C471.514 120.562 480.544 117.447 489.841 117.447H540.646" stroke="#FF994F" stroke-width="1.84836" stroke-linecap="round"/>
<g filter="url(#filter0_d_1_182)">
<circle cx="453.773" cy="135.006" r="8.31764" fill="white"/>
</g>
<circle cx="453.773" cy="135.006" r="5.54509" fill="#FF994F"/>
<path d="M438.524 88.7973C434.186 88.7973 430.669 91.9275 430.669 95.7889V102.781C430.669 106.642 434.186 109.772 438.524 109.772H447.253L453.799 115.599L460.345 109.772H469.947C474.285 109.772 477.802 106.642 477.802 102.781V95.7889C477.802 91.9275 474.285 88.7973 469.947 88.7973H438.524Z" fill="#FF994F"/>
<path d="M440.564 103.494V102.265L443.435 99.607C443.68 99.3707 443.884 99.158 444.05 98.969C444.218 98.7799 444.345 98.5948 444.432 98.4137C444.518 98.2299 444.562 98.0317 444.562 97.819C444.562 97.5827 444.508 97.3792 444.4 97.2086C444.293 97.0353 444.146 96.9027 443.959 96.8108C443.773 96.7163 443.561 96.669 443.325 96.669C443.078 96.669 442.863 96.7189 442.679 96.8187C442.496 96.9185 442.354 97.0615 442.254 97.248C442.154 97.4344 442.104 97.6562 442.104 97.9135H440.486C440.486 97.3858 440.605 96.9276 440.844 96.5391C441.083 96.1505 441.418 95.8499 441.848 95.6372C442.279 95.4245 442.775 95.3182 443.337 95.3182C443.915 95.3182 444.417 95.4206 444.845 95.6254C445.276 95.8276 445.611 96.1085 445.85 96.4682C446.089 96.8279 446.208 97.2401 446.208 97.7048C446.208 98.0094 446.148 98.31 446.027 98.6067C445.909 98.9033 445.697 99.2328 445.393 99.5952C445.088 99.9549 444.659 100.387 444.105 100.891L442.927 102.045V102.1H446.314V103.494H440.564ZM450.712 103.671C450.035 103.669 449.452 103.502 448.964 103.171C448.478 102.84 448.104 102.361 447.841 101.734C447.581 101.106 447.453 100.351 447.455 99.4691C447.455 98.5896 447.585 97.84 447.845 97.2204C448.108 96.6008 448.482 96.1295 448.968 95.8065C449.456 95.481 450.038 95.3182 450.712 95.3182C451.387 95.3182 451.967 95.481 452.453 95.8065C452.941 96.1321 453.317 96.6047 453.579 97.2243C453.842 97.8413 453.972 98.5896 453.969 99.4691C453.969 100.354 453.838 101.11 453.576 101.738C453.316 102.365 452.943 102.844 452.457 103.175C451.971 103.506 451.39 103.671 450.712 103.671ZM450.712 102.257C451.175 102.257 451.543 102.025 451.819 101.56C452.095 101.096 452.231 100.399 452.229 99.4691C452.229 98.8574 452.166 98.348 452.04 97.9411C451.916 97.5341 451.74 97.2283 451.512 97.0235C451.286 96.8187 451.02 96.7163 450.712 96.7163C450.253 96.7163 449.885 96.946 449.61 97.4055C449.334 97.865 449.195 98.5528 449.192 99.4691C449.192 100.089 449.254 100.606 449.377 101.021C449.503 101.433 449.681 101.743 449.909 101.95C450.137 102.155 450.405 102.257 450.712 102.257ZM455.185 103.494V102.265L458.056 99.607C458.3 99.3707 458.505 99.158 458.671 98.969C458.839 98.7799 458.966 98.5948 459.053 98.4137C459.139 98.2299 459.183 98.0317 459.183 97.819C459.183 97.5827 459.129 97.3792 459.021 97.2086C458.914 97.0353 458.767 96.9027 458.58 96.8108C458.394 96.7163 458.182 96.669 457.946 96.669C457.699 96.669 457.484 96.7189 457.3 96.8187C457.116 96.9185 456.975 97.0615 456.875 97.248C456.775 97.4344 456.725 97.6562 456.725 97.9135H455.107C455.107 97.3858 455.226 96.9276 455.465 96.5391C455.704 96.1505 456.039 95.8499 456.469 95.6372C456.9 95.4245 457.396 95.3182 457.958 95.3182C458.535 95.3182 459.038 95.4206 459.466 95.6254C459.897 95.8276 460.232 96.1085 460.47 96.4682C460.709 96.8279 460.829 97.2401 460.829 97.7048C460.829 98.0094 460.768 98.31 460.648 98.6067C460.53 98.9033 460.318 99.2328 460.014 99.5952C459.709 99.9549 459.28 100.387 458.726 100.891L457.548 102.045V102.1H460.935V103.494H455.185ZM465.68 95.4285V103.494H463.975V97.0471H463.927L462.08 98.205V96.6927L464.077 95.4285H465.68Z" fill="white"/>
<defs>
<filter id="filter0_d_1_182" x="441.759" y="122.992" width="24.0287" height="24.0287" filterUnits="userSpaceOnUse" color-interpolation-filters="sRGB">
<feFlood flood-opacity="0" result="BackgroundImageFix"/>
<feColorMatrix in="SourceAlpha" type="matrix" values="0 0 0 0 0 0 0 0 0 0 0 0 0 0 0 0 0 0 127 0" result="hardAlpha"/>
<feOffset/>
<feGaussianBlur stdDeviation="1.84836"/>
<feComposite in2="hardAlpha" operator="out"/>
<feColorMatrix type="matrix" values="0 0 0 0 1 0 0 0 0 0.6 0 0 0 0 0.309804 0 0 0 0.29 0"/>
<feBlend mode="normal" in2="BackgroundImageFix" result="effect1_dropShadow_1_182"/>
<feBlend mode="normal" in="SourceGraphic" in2="effect1_dropShadow_1_182" result="shape"/>
</filter>
<linearGradient id="paint0_linear_1_182" x1="277.486" y1="117.447" x2="277.486" y2="264.392" gradientUnits="userSpaceOnUse">
<stop stop-color="#FFFAF2"/>
<stop offset="1" stop-color="#FFEACA" stop-opacity="0"/>
</linearGradient>
</defs>
</svg>
